<?xml version="1.0" encoding="UTF-8" standalone="no"?>
<!-- Created with Inkscape (http://www.inkscape.org/) -->

<svg
   width="48"
   height="48"
   viewBox="0 0 48 48"
   version="1.1"
   id="svg5"
   inkscape:version="1.2.2 (b0a8486541, 2022-12-01)"
   sodipodi:docname="magma.svg"
   xmlns:inkscape="http://www.inkscape.org/namespaces/inkscape"
   xmlns:sodipodi="http://sodipodi.sourceforge.net/DTD/sodipodi-0.dtd"
   xmlns="http://www.w3.org/2000/svg"
   xmlns:svg="http://www.w3.org/2000/svg"
   xmlns:rdf="http://www.w3.org/1999/02/22-rdf-syntax-ns#"
   xmlns:cc="http://creativecommons.org/ns#">
  <sodipodi:namedview
     id="namedview7"
     pagecolor="#ffffff"
     bordercolor="#000000"
     borderopacity="0.25"
     inkscape:showpageshadow="2"
     inkscape:pageopacity="0.0"
     inkscape:pagecheckerboard="0"
     inkscape:deskcolor="#d1d1d1"
     inkscape:document-units="px"
     showgrid="false"
     inkscape:zoom="20.240932"
     inkscape:cx="24.208372"
     inkscape:cy="24.90004"
     inkscape:window-width="1919"
     inkscape:window-height="2041"
     inkscape:window-x="0"
     inkscape:window-y="0"
     inkscape:window-maximized="0"
     inkscape:current-layer="svg5" />
  <defs
     id="defs2" />
  <g
     inkscape:label="Layer 1"
     inkscape:groupmode="layer"
     id="layer1">
    <g
       id="g320"
       transform="translate(-0.81627398,-0.37437566)">
      <path
         id="path322"
         style="display:inline;fill:#ffffff"
         d="m 31.177734,2.7265625 c -1.522062,0.3495546 -1.669928,2.6960053 -0.376953,3.4277344 -0.569027,-0.8450603 0.273382,-1.6457 0.758766,-2.2757724 0.263756,-0.3698598 0.28236,-1.2575027 -0.381813,-1.151962 z M 15.949219,3.0917969 c -0.713107,0.3644262 -0.0995,1.3679307 0.517578,1.4375 C 16.84642,5.081881 18.084605,5.0334235 18.013672,4.2070312 17.675524,3.4231653 16.772196,3.0116861 15.949219,3.0917969 Z M 26.529297,3.1992188 C 25.187587,3.861945 25.157075,5.5780411 25.181641,6.875 25.290843,7.638517 26.624894,7.4489568 26.5625,6.6992188 27.020204,5.7487887 27.887487,4.6460389 27.34375,3.5488281 27.146841,3.3145754 26.843822,3.1375521 26.529297,3.1992188 Z m -5.357422,0.96875 c -1.075986,0.5095775 -0.948643,2.0024209 -0.398437,2.859375 0.118321,0.5695302 0.856778,1.3170451 1.404296,0.7949218 C 22.418817,6.7693399 22.373036,5.5910151 21.919922,4.6074219 21.753937,4.3615712 21.483676,4.1365293 21.171875,4.1679688 Z m 7.552734,1.8886718 C 27.455493,6.5367401 26.329251,8.0270926 26.916016,9.4042969 28.327914,9.559724 29.346569,8.1007801 29.501953,6.8515625 29.473886,6.4469468 29.191747,5.9757247 28.724609,6.0566406 Z m -9.972656,0.7832032 c -0.958791,0.1944115 -0.675724,1.8209304 0.251953,1.8066406 0.404311,0.5524285 1.627614,0.655551 1.720703,-0.1914063 -0.276617,-0.8307452 -0.97816,-1.7889342 -1.972656,-1.6152343 z m -3.417969,0.6953124 c -0.850323,0.1909041 -0.428425,1.5940736 0.384766,1.4316407 0.705778,-0.017113 1.115972,-1.2274521 0.292969,-1.4140625 -0.223132,-0.037748 -0.452671,-0.03329 -0.677735,-0.017578 z m 8.650391,0.8320313 c -1.093032,0.2647625 -1.133991,2.0403275 -0.134766,2.4433595 1.224453,-0.04479 1.486675,-2.4364597 0.134766,-2.4433595 z m 8.136719,0.099609 C 31.37845,8.2809167 31.107105,9.3004031 31.609375,9.7089844 32.027929,9.926685 32.60728,10.097369 33.021484,9.7441406 33.547186,9.4457463 33.471576,8.5228166 32.794922,8.5019531 32.57049,8.4664778 32.347993,8.4563181 32.121094,8.4667969 Z M 17.658203,8.9707031 c -0.772501,-0.0069 -1.595139,1.0360709 -0.933594,1.6757809 0.66007,0.27887 1.371558,0.391317 2.0625,0.56836 -1.429477,-0.20032 -2.947573,0.711672 -3.285156,2.146484 -0.570875,0.937051 -1.746153,1.27399 -2.283403,2.256532 -1.836546,2.360406 -3.5120461,5.031154 -6.1909062,6.516503 -0.9710004,0.563882 -2.1007018,0.612536 -3.1897532,0.633215 -0.914523,0.08466 -1.7359378,0.950159 -1.46875,1.898438 0.6409934,2.453527 3.0151735,3.926452 5.2701581,4.715972 3.0340443,1.040423 6.1765913,1.707862 9.2689043,2.532074 -3.322828,1.303774 -6.9624903,2.271057 -9.5647089,4.860413 -0.9932295,0.842305 -2.1380192,2.084207 -1.7043547,3.500605 0.6689688,1.806088 2.6413863,2.543007 4.2580901,3.274695 2.9571255,1.123988 6.0859745,1.706686 9.1905465,2.255322 4.287721,0.441987 8.46869,-1.228696 12.044416,-3.455477 3.249484,-1.779524 6.736391,-3.058835 10.161341,-4.432316 1.159996,-0.714967 1.120292,-2.417115 0.35058,-3.408954 -0.967464,-1.516458 -2.727524,-2.17614 -4.20466,-3.072803 2.579441,0.172155 5.524119,5.38e-4 7.481095,-1.900145 1.121787,-1.214328 1.292763,-3.523406 -0.23431,-4.49201 -1.762652,-1.268131 -3.768513,-2.297516 -5.05848,-4.10084 -1.889582,-2.130309 -3.927849,-4.13179 -5.816643,-6.258334 -1.216744,-1.71228 -1.832065,-4.024749 -3.768146,-5.106093 -1.38244,-0.4974094 -2.697207,0.55972 -3.667969,1.423828 -2.192938,-0.53072 -4.285419,1.077502 -6.474609,0.523438 -0.06377,-1.096107 -0.639163,-2.5814574 -1.936225,-2.5884799 -0.102816,-0.00766 -0.203848,0.026436 -0.305963,0.033792 z m -3.453125,2.6562499 c -0.811611,0.09459 -1.444152,1.343537 -0.638672,1.857422 1.102124,0.218831 1.824218,-0.880707 2.271485,-1.714844 -0.540749,-0.08117 -1.083057,-0.195852 -1.632813,-0.142578 z" />
      <path
         style="fill:#000000"
         d="m 3.7283716,23.426694 c 3.7322384,-0.165262 4.5956183,-0.952229 6.8598464,-3.539771 0.357732,-0.408813 0.813292,-0.717641 1.160892,-1.13628 0.514977,-0.620221 0.975034,-1.368688 1.415102,-2.046142 0.144293,-0.222129 0.258841,-0.466384 0.440631,-0.662481 0.451779,-0.487335 0.95578,-0.977936 1.482891,-1.383662 0.268213,-0.206448 0.594277,-0.324392 0.85584,-0.540886 0.361806,-0.299464 0.09517,-1.168852 0.771104,-1.672973 0.572415,-0.426914 2.054873,-1.104918 2.55481,-0.209646 0.216728,0.38811 0.07887,0.967747 0.559262,1.148859 0.232395,0.08761 0.91213,-0.177692 1.215971,-0.17191 0.415851,0.0079 0.826672,0.164875 1.237155,0.222225 0.50675,0.0708 1.066002,0.01558 1.571865,-0.05451 0.310151,-0.04297 0.578883,-0.238123 0.84313,-0.385749 0.516661,-0.28864 1.054496,-0.603388 1.512549,-0.981142 1.038456,-0.85641 2.277652,-2.3972226 3.808912,-1.802953 0.253204,0.09827 0.411086,0.330674 0.593157,0.515728 1.165802,1.1849 1.480832,2.69189 2.423468,3.966498 0.566131,0.765507 1.168349,1.547315 1.851496,2.213859 0.409854,0.399893 0.874008,0.724773 1.275287,1.136281 0.630856,0.646937 1.203243,1.327947 1.79218,2.012599 0.302073,0.351167 0.561225,0.734546 0.86855,1.081772 0.34036,0.384549 0.765217,0.70734 1.126998,1.073386 0.362088,0.366358 0.662265,0.773309 1.054971,1.111123 0.517803,0.445425 1.523999,1.078513 2.139601,1.454942 0.94455,0.577574 2.152106,0.980392 2.071811,2.331261 -0.07357,1.23767 -1.026569,2.673281 -2.224337,3.102757 -0.329641,0.118197 -0.684109,0.119617 -1.021077,0.222224 -1.691068,0.514936 -2.507677,0.468859 -4.228359,0.398327 -0.529483,-0.0217 -1.065547,0.01168 -1.593049,-0.05032 -0.856344,-0.100636 -1.749728,-0.411028 -2.618362,-0.381555 -1.146068,0.03889 -2.230563,0.633776 -3.31744,0.972756 -1.821008,0.567945 -3.871726,0.735802 -5.76633,0.817619 -2.003693,0.08653 -3.867193,-0.234759 -5.825644,-0.599587 C 15.215927,30.954992 11.889034,30.031738 8.5757226,29.027479 6.5681732,28.418994 4.8107229,27.689842 3.6143916,25.891178 3.3649391,25.51613 3.0710853,25.078635 2.9958141,24.624918 2.9337361,24.250728 2.91226,23.849905 3.1580382,23.620766"
         id="path122" />
      <path
         style="fill:#ff0000"
         d="m 19.798122,12.084291 c 0.240264,-0.0096 0.685185,0.208624 0.85681,0.259578 0.679563,0.201756 2.19246,-0.318039 2.943742,-0.528696 0.590142,-0.165474 1.506766,-0.356823 2.118417,-0.188681 0.286305,0.0787 0.606429,0.181913 0.899065,0.230998 0.484892,0.08133 0.948576,0.152555 1.368497,0.440256 0.511306,0.350313 0.783022,0.937762 0.605867,1.551379 -0.150258,0.520451 -0.49901,1.419439 -0.864314,1.828111 -0.718285,0.803558 -2.239038,1.397336 -3.228467,1.702324 -0.3963,0.122158 -1.051367,0.343723 -0.902445,0.859548 0.02084,0.07219 0.0031,0.158117 0.02966,0.226417 0.179492,0.461843 2.06076,0.631989 2.427705,0.721181 0.365439,0.08883 0.711016,0.262064 1.071919,0.360591 2.150338,0.587048 4.06526,0.303238 5.732434,2.155159 0.375385,0.416983 0.0206,0.99548 -0.279631,1.324961 -0.355226,0.389831 -0.77088,0.666967 -1.232918,0.918248 -0.928693,0.505073 -2.390298,1.027939 -1.482892,2.285139 0.306036,0.424008 1.044528,0.496903 1.504076,0.628938 0.738734,0.212248 1.602763,0.513382 2.253995,0.918248 0.705834,0.438812 0.392766,1.940721 1.165129,2.763131 0.422505,0.449882 1.021074,0.673139 1.546444,0.972757 0.4977,0.283837 0.961248,0.628133 1.470181,0.893091 1.45039,0.755092 3.555795,1.714435 3.724176,3.580749 0.0194,0.21499 0.07676,0.509443 0.02542,0.725375 -0.210969,0.887323 -1.561608,1.066388 -2.275179,1.316575 -0.8892,0.311765 -1.752429,0.701519 -2.6226,1.060808 -0.492875,0.203505 -1.016811,0.329614 -1.512549,0.528307 -0.911974,0.365521 -1.686055,0.932533 -2.559047,1.358505 -0.37371,0.182349 -0.97527,0.186208 -1.292234,0.452834 -0.50206,0.422328 -1.08147,0.691765 -1.682022,0.993721 -0.364792,0.183417 -0.694514,0.438466 -1.059209,0.624745 -1.587101,0.810658 -3.621005,1.646212 -5.36383,1.987442 -2.559534,0.501133 -5.071227,0.09523 -7.575456,-0.515729 C 15.055389,44.385268 14.5178,44.178779 13.960737,44.05908 11.623268,43.556817 9.3470395,43.050985 7.4444883,41.513981 7.117047,41.249452 6.7463817,41.000439 6.4954378,40.654433 5.6664573,39.511421 6.1911279,38.732845 7.097068,37.899688 7.4145188,37.607741 7.69803,37.280552 8.0249344,36.998211 9.5568671,35.67511 11.438086,34.64314 13.308265,33.878682 c 1.229996,-0.502776 2.58582,-0.732045 3.800438,-1.270454 0.542781,-0.2406 1.054682,-0.558662 1.584576,-0.826004 0.869168,-0.438512 1.949135,-0.83151 2.872572,-1.157244 0.440085,-0.155236 0.893793,-0.261199 1.317655,-0.465414 0.415677,-0.200272 0.833194,-0.411688 1.28376,-0.528307 0.548777,-0.142039 1.216039,-0.192931 1.673549,-0.570237 0.07428,-0.06126 0.0974,-0.274986 0.127105,-0.356398 0.419187,-1.148791 -0.84276,-2.068211 -0.389788,-3.20758 0.108612,-0.273195 0.2557,-0.592768 0.457578,-0.80504 0.236138,-0.248297 0.632054,-0.433328 0.796524,-0.746339 0.280314,-0.533476 -0.566684,-2.760297 -0.94905,-2.989548 -1.038258,-0.622498 -0.55841,1.119861 -1.038024,1.169823 -0.114035,0.01188 -0.26831,-0.07602 -0.389789,-0.08386 -0.191886,-0.01239 -0.385922,0.04638 -0.580446,0.03354 -0.351273,-0.02317 -1.029662,-0.302 -1.279523,-0.549272 -0.03861,-0.0382 -0.0012,-0.252189 -0.02966,-0.314468 -0.09304,-0.203874 -0.413041,-0.242863 -0.567736,-0.385749 -0.08485,-0.07837 -0.110864,-0.216479 -0.228789,-0.268346 -0.129957,-0.05716 -0.30015,-0.02927 -0.44063,-0.04612 -0.599727,-0.07194 -0.840815,-0.126769 -1.35155,-0.498957 -0.231033,-0.168361 0.05024,-0.471309 0.207605,-0.545079 0.217169,-0.101804 0.672024,-0.149885 0.821945,-0.352205 0.177631,-0.239713 0.05113,-0.552451 0.14829,-0.813426 0.113546,-0.305002 0.517349,-0.917797 0.190657,-1.241103 -0.285726,-0.282764 -0.717629,-0.338746 -1.033787,-0.578622 -0.275403,-0.208954 -1.098982,-1.213035 -1.241392,-1.526221 -0.186596,-0.410359 0.492353,-0.606023 0.639762,-0.90567 0.09281,-0.18866 0.104608,-0.60529 0.03813,-0.809233 -0.03296,-0.101106 -0.182677,-0.125991 -0.194894,-0.234803 -0.02373,-0.211361 -0.331616,-0.757485 -0.313952,-0.780073 0.18624,-0.135726 0.372481,-0.134573 0.558721,-0.141982 z"
         id="path313" />
      <path
         style="fill:#ff0000"
         d="m 27.23897,8.9014854 c -0.01928,-0.386648 0.144115,-0.618958 0.326236,-0.93502 0.143344,-0.248765 0.305331,-0.495828 0.499946,-0.708603 0.718603,-0.785655 1.149531,-0.895503 0.622815,0.238996 -0.321191,0.691817 -0.788965,1.041744 -1.448997,1.404627 z"
         id="path315" />
      <path
         style="fill:#ff0000"
         d="m 19.05341,10.599616 c -0.103297,-0.401772 -0.318061,-0.7831706 -0.716025,-0.9601776 -0.561529,-0.249756 -1.410153,0.3787646 -1.343076,0.4276776 0.404073,0.294652 1.020083,0.21703 1.482891,0.398326"
         id="path317" />
      <path
         style="fill:#ff0000"
         d="m 23.980846,10.146781 c -0.0481,-0.2105846 -0.315591,-0.6982326 -0.182184,-0.9811416 0.09207,-0.195258 0.399516,-0.290142 0.444867,-0.01677 0.05885,0.354743 -0.140527,0.686469 -0.262683,0.9979136 z"
         id="path319" />
      <path
         style="fill:#ff0000"
         d="m 25.836579,6.7882564 c -0.08522,-0.598908 0.05876,-2.847699 0.826182,-2.97697 0.09226,-0.015541 0.128432,0.05524 0.169473,0.134173 0.289924,0.557596 0.03313,0.870335 -0.292341,1.299804"
         id="path321" />
      <path
         style="fill:#ff0000"
         d="m 21.70143,7.3207564 c -0.457157,-0.600622 -0.876364,-1.556382 -0.639762,-2.348033 0.148652,-0.497373 0.46371,0.03627 0.516894,0.259961"
         id="path323" />
      <path
         style="fill:#ff0000"
         d="M 20.112618,8.5408944 C 19.909873,8.0492464 19.091806,6.9127994 18.663621,7.7148904"
         id="path325" />
      <path
         style="fill:#ff0000"
         d="m 31.92067,9.1362884 c 0.962602,-0.205093 1.453239,0.309608 0,0 z"
         id="path327" />
      <path
         style="fill:#ff0000"
         d="M 31.204645,3.3500655 C 30.848525,3.578425 30.695133,3.6320707 30.63691,3.9873884"
         id="path329" />
      <path
         style="fill:#ff0000"
         d="M 17.506966,4.3815224 C 17.134415,4.0575274 16.781613,3.765722 16.295232,3.6854987"
         id="path331" />
      <path
         style="fill:#ff0000"
         d="m 14.744551,12.251624 c -0.460118,-0.171723 -1.784321,0.93682 -0.466052,0.57443"
         id="path333" />
      <path
         style="fill:#ff6600"
         d="m 16.00289,8.1844974 c -0.218903,0.0084 -0.437806,0.01677 -0.656709,0.02516"
         id="path335" />
      <path
         style="fill:#ff6600"
         d="m 21.108273,12.666723 c -0.207712,-0.376817 -2.019135,-0.36362 -1.910811,0.150945 0.08176,0.388395 0.244512,0.485396 0.567735,0.649902 0.116305,0.05919 0.112803,0.233205 0.194895,0.264154 0.6633,0.250066 1.313262,-0.0084 1.974364,-0.0587 0.398574,-0.03034 0.79569,-0.03194 1.194786,-0.05451 0.808166,-0.0457 -0.303686,0.668568 -0.491472,0.792461 -0.0433,0.02856 -0.508998,0.284681 -0.436394,0.339626 0.293788,0.222333 2.277183,-0.190319 2.516679,-0.750532 0.202546,-0.473783 -0.579378,-0.791454 -0.915156,-0.859548 -0.33659,-0.06826 -0.662176,0.12001 -0.991419,0.138367 -0.409445,0.02283 -0.87583,-0.03522 -1.287997,-0.06709 -0.145358,-0.01124 -0.661447,-0.456672 -0.41521,-0.545079 0.36942,-0.132633 0.777001,0.127776 1.169366,0.138366 0.178023,0.0048 0.577788,-0.240872 0.758393,-0.314468 0.08367,-0.0341 0.339298,-0.09122 0.249973,-0.104823 -0.746963,-0.113727 -1.255239,0.681632 -1.924272,0.391024 z"
         id="path337" />
      <path
         style="fill:#ff6600"
         d="m 26.933425,14.116771 c 0.225127,0.08002 0.0015,0.166482 -0.0334,0.503851 -0.13477,0.439171 -2.845953,1.905651 -3.491151,2.037756 -0.167713,0.03434 -0.823008,0.194964 -0.669419,0.498957 0.119922,0.237358 0.710522,-0.03672 0.84313,-0.09224 0.367433,-0.153841 0.71372,-0.350933 1.080392,-0.507343 0.738055,-0.314829 1.623201,-0.601692 1.941496,-1.420681"
         id="path339" />
      <path
         style="fill:#ff6600"
         d="m 22.567862,20.330105 c 0.151104,0.17598 2.453126,0.524114 2.453126,0.880512 0,0.12622 -0.887907,0.119282 -0.970235,0.08386 -0.381301,-0.164065 -1.088039,-0.732027 -1.482891,-0.96437 z"
         id="path341" />
      <path
         style="fill:#ff6600"
         d="m 27.853311,20.935152 c 0.658445,0.07721 1.310395,0.177114 1.95318,0.339626 0.612174,0.154774 1.051717,0.318117 0.970234,0.385748 -0.19055,0.15816 -0.525869,0.185811 -0.749919,0.255768 -0.153734,0.048 -0.308401,0.09444 -0.457578,0.155138 -0.129611,0.05274 -0.253015,0.119769 -0.377078,0.184488 -0.89019,0.464384 1.299734,0.10706 1.228681,0.423485 -0.03371,0.150137 -0.623951,0.297852 -0.745682,0.356398 -0.432231,0.207878 -0.841811,0.594347 -1.046498,1.03565 -0.03193,0.06885 0.0384,0.182273 0.0042,0.251575 -0.08459,0.171602 -0.633654,0.657663 -0.771103,0.800847 -0.184835,0.192545 0.126672,0.325806 0.135578,0.524114 0.01,0.22215 -0.473853,0.491277 -0.33471,0.712796 0.04704,0.07489 0.158314,0.108778 0.199132,0.176102 0.119701,0.197434 -0.329983,-0.0222 -0.398263,-0.134173 -0.525482,-0.861773 0.141914,-1.49872 0.652472,-2.163545 0.104697,-0.13633 0.104169,-0.277901 0.173711,-0.423484 0.101007,-0.211455 0.366465,-0.376261 0.529604,-0.5325 0.136254,-0.130493 0.473616,-0.174753 0.559262,-0.30189 0.0086,-0.01284 -0.885488,-0.307498 -0.881262,-0.314469 0.06102,-0.10064 0.306402,-0.01397 0.360131,-0.188681 0.05119,-0.166452 -0.589961,-0.30453 -0.542314,-0.356398 0.05578,-0.06072 1.185693,-0.315696 1.126997,-0.43187 -0.02704,-0.05352 -0.465042,-0.05693 -0.563499,-0.08805 -0.485332,-0.15343 -0.62035,-0.290303 -1.025313,-0.666674 z"
         id="path345" />
      <path
         style="fill:#ff6600"
         d="m 31.149567,29.174231 c 0.175122,0.118799 0.346199,0.243793 0.525367,0.356398 0.388184,0.243969 0.768023,0.397623 0.991419,0.83439 0.382652,0.748136 -0.651721,0.929612 0.677893,1.614272 1.099161,0.565993 2.323051,0.85795 3.372519,1.534607 0.37622,0.242573 0.572639,0.622173 0.915155,0.884705 0.273562,0.20968 0.971854,0.382745 1.076156,0.729568 0.06553,0.217881 -0.52674,0.521279 -0.631288,0.624744 -0.19737,0.195324 -0.135339,0.363886 -0.194894,0.587008 -0.07704,0.288632 -0.738389,0.406533 -0.953288,0.486378 -2.332377,0.866588 -4.432156,2.096 -6.664537,3.17823 -1.272922,0.617096 -3.297074,1.550207 -4.741016,1.454942 -0.05644,-0.0037 0.114792,0.0061 0.169473,-0.0084 0.197684,-0.05227 0.618314,-0.228806 0.796525,-0.314469 0.617669,-0.296901 1.202069,-0.668732 1.79218,-1.014685 1.027546,-0.6024 2.120846,-1.054909 3.15644,-1.63943 0.807513,-0.455785 1.61075,-0.915472 2.410758,-1.383662 0.275551,-0.161261 1.798543,-0.911856 1.766759,-1.320769 -0.01458,-0.187595 -0.430481,-0.310284 -0.542314,-0.36059 -0.823233,-0.370318 -1.980628,-0.461609 -2.614126,-1.157245 -0.356236,-0.391178 0.980616,-0.682449 0.677893,-1.144666 -0.36129,-0.55164 -1.076823,-0.773663 -1.474418,-1.303996 -0.228746,-0.305115 -0.07213,-0.653953 -0.216078,-0.80504 -0.159146,-0.167042 -0.532546,-0.270189 -0.605867,-0.50315 -0.102939,-0.327061 0.533393,-0.40963 0.482999,-0.679252 -0.0412,-0.220422 -0.115807,-0.433268 -0.17371,-0.649902 z"
         id="path347" />
      <path
         style="fill:#ff6600"
         d="m 19.717269,33.727954 c -2.956571,0.405601 -5.67841,1.665858 -8.044708,3.454913 -0.386416,0.292152 -1.45674,0.866686 -1.467274,1.471322 -0.0038,0.220753 0.494399,0.256588 0.587688,0.269615 0.834176,0.116485 1.735952,0.03272 2.533674,0.35435 0.752883,0.30355 -1.682632,1.443925 -0.961317,1.667755 0.965213,0.299515 2.081576,0.212267 3.07855,0.342796 0.553829,0.07251 1.075996,0.242062 1.622953,0.327388 0.687257,0.107213 1.397829,0.05204 2.08999,0.03466 1.012905,-0.02542 2.063305,0.0595 3.016279,-0.342795 0.935553,-0.394946 -0.293141,-0.5494 0.0506,-0.932095 0.550283,-0.61265 1.269034,-0.854735 1.942095,-1.271038 0.147607,-0.0913 -0.341436,-0.0639 -0.513741,-0.08474 -0.604322,-0.0731 -1.206484,-0.119024 -1.809767,-0.211839 -0.841687,-0.129495 -1.660279,-0.330562 -2.506431,-0.435235 -0.385617,-0.0477 -1.645892,-0.12487 -1.868147,-0.458344 -0.07818,-0.117309 0.294591,-0.341514 0.330818,-0.365905 0.323433,-0.217759 0.504105,-0.261892 0.922398,-0.419827 1.491188,-0.56303 3.071428,-1.00608 4.635339,-1.317258 1.425415,-0.28362 2.883663,-0.288045 4.296738,-0.658629 0.309983,-0.08129 1.7942,-0.554156 1.7942,-0.947501 0,-0.346016 -0.967633,-0.211839 -1.097536,-0.211839 -1.38226,0 -2.732399,0.02871 -4.106032,0.184878 -0.570846,0.0649 -1.175801,0.02598 -1.739712,0.115549 -0.304981,0.04844 -0.576581,0.209529 -0.86791,0.304279 -0.412913,0.134292 -0.417277,0.131772 -0.716123,0.204136 -0.06999,0.01695 -0.278557,0.07263 -0.210166,0.05007 0.196439,-0.0648 0.526839,-0.253418 0.669419,-0.323537 0.991054,-0.487382 0.860991,-0.568405 -0.02724,-0.620112 -0.54706,-0.03185 -1.086,-0.143483 -1.634628,-0.181027 z"
         id="path357" />
      <path
         style="fill:#ffde00;fill-opacity:1"
         d="m 25.131003,12.128011 c 0.902938,-0.0051 0.902938,-0.0051 0,0 z"
         id="path3085" />
      <path
         style="fill:#ffde00;fill-opacity:1"
         d="m 21.017188,13.144842 c -0.116179,-1.042822 -1.022874,-0.03867 -0.57212,0.134807 0.182854,0.07037 0.381613,-0.180585 0.57212,-0.134807 0.251091,0.06034 0.421355,0.300284 0.646067,0.427531 0.117382,0.06647 0.627652,-0.181429 0.653852,-0.200285"
         id="path3213" />
      <path
         style="fill:#ffde00;fill-opacity:1"
         d="m 23.597566,16.749968 c 0.371714,-0.707265 -1.125289,6.35e-4 -0.961318,0.292724 0.0833,0.148382 0.470362,0.04396 0.57212,-0.01926 0.134683,-0.08367 0.246704,-0.203929 0.389198,-0.273465 0.649698,-0.317048 1.805914,-0.492187 2.206748,-1.194006"
         id="path3215" />
      <path
         style="fill:#ffde00;fill-opacity:1"
         d="m 29.466175,21.1472 c 0.293196,0.05777 0.548621,0.03749 0.79834,0.201614 0.215097,0.141382 -1.318865,0.166263 -1.205853,0.348003 0.0796,0.12801 0.719153,0.257162 0.847792,0.245152 0.04657,-0.0043 0.184951,-0.02102 0.140111,-0.0077 -0.500427,0.175814 -0.893602,0.09462 -0.90328,0.38196"
         id="path3217" />
      <path
         style="fill:#ffde00;fill-opacity:1"
         d="m 29.388821,23.239965 c -0.27734,0.111918 -0.352374,0.09253 -0.517632,0.261911 -0.144129,0.147729 -0.159648,0.375505 -0.27633,0.504563 -0.638017,0.705687 -0.35586,0.623572 0.190707,0.03852 0.09212,-0.09861 0.149997,-0.211986 0.229626,-0.319685 0.121375,-0.164159 0.249086,-0.323537 0.373629,-0.485305 z"
         id="path3221" />
      <path
         style="fill:#ffde00;fill-opacity:1"
         d="m 35.001046,33.215687 c -0.357068,-0.06461 1.008137,0.606237 0.708339,0.797288 -0.35513,0.226312 -0.819724,0.193369 -1.229863,0.288872 -0.08682,0.02022 -0.456145,0.09906 -0.346386,0.14251 0.30601,0.121135 0.754223,0.07569 1.066401,0.107846 0.572438,0.05896 1.14013,0.216264 1.712468,0.296576 0.4692,0.06584 0.42027,0.199474 0.723907,0.485305 0.138346,0.130233 0.448097,0.0828 0.303574,0.134807 -0.09067,0.03263 -0.514706,0.106644 -0.603256,0.08474 -0.168973,-0.0418 0.517875,-0.202657 -0.0506,-0.130955 -0.03872,0.0049 -0.594075,0.13599 -0.618823,0.08088 -0.02597,-0.05782 0.06187,-0.129341 0.01557,-0.223395 -0.208635,-0.423811 -0.821601,-0.478106 -1.214296,-0.647074 -0.424672,-0.182726 -1.563181,-0.259946 -1.879823,-0.531525 -0.237464,-0.203669 1.902073,-0.171968 1.412786,-0.885875 -0.517181,-0.754607 -0.538716,-0.277105 -0.941857,-0.54308 -0.287917,-0.189955 -0.53681,-0.437907 -0.82899,-0.620112 -0.141306,-0.08812 -0.115565,-0.06754 -0.27633,-0.08474"
         id="path3223" />
      <path
         style="fill:#ffde00;fill-opacity:1"
         d="m 26.46595,31.054923 c -1.499707,0.41726 -3.063306,0.650397 -4.499121,1.25178 -0.724304,0.30337 2.020575,-0.122133 2.265128,-0.184879 0.522166,-0.133973 0.982724,-0.465437 1.506194,-0.562338 0.263926,-0.04886 1.306424,-0.0044 1.490625,-0.150213 0.01981,-0.01569 -0.842252,-0.287538 -0.762826,-0.35435 0.166365,-0.139945 0.432642,0.05982 0.649959,0.05392 0.09319,-0.0025 0.424856,-0.148131 0.428117,-0.177175 0.0158,-0.140754 -0.50004,-0.126616 -0.568228,-0.103994 -0.176601,0.05859 -0.33146,0.174346 -0.509848,0.227246 -0.254116,0.07536 -0.523419,0.08558 -0.782287,0.14251"
         id="path3225" />
      <path
         style="fill:#ffde00;fill-opacity:1"
         d="m 27.508998,33.993717 c -1.43484,0.310698 -2.914077,0.460962 -4.304522,0.932094 -0.323543,0.109628 0.668001,0.151949 1.008021,0.184878 0.311128,0.03013 0.697559,-0.215716 0.976886,-0.33124 0.446517,-0.18467 0.940504,-0.22399 1.412786,-0.292724 0.237147,-0.03451 0.477829,-0.02739 0.716123,-0.05392 0.130542,-0.01453 0.43947,0.05972 0.389197,-0.06163 -0.252184,-0.608706 -0.143007,-0.378514 -0.793962,-0.103994 -0.09846,0.04152 -0.07306,-0.0045 -0.124543,0.05777"
         id="path3227" />
      <path
         style="fill:#ffde00;fill-opacity:1"
         d="m 17.012348,35.052915 c 3.260175,-1.831992 -5.445035,2.237635 -4.736532,2.938794 0.05268,0.05213 0.589627,-0.210914 0.86791,-0.342795 0.303108,-0.143645 2.871736,-1.449599 3.245906,-1.4174 0.0037,3.19e-4 -0.246367,0.279851 -0.443685,0.431383 -0.04549,0.03493 -1.823606,1.184847 -1.790308,1.290296 0.04542,0.143833 0.68853,-0.142121 0.723907,-0.154066 0.02652,-0.009 0.107676,-0.02976 0.08173,-0.01926 -0.142363,0.05764 -0.283423,0.123309 -0.412549,0.207988 -0.895259,0.587095 0.760889,0.42364 1.078076,0.508416 0.388276,0.103775 0.576071,0.271479 0.860126,0.508415 0.319253,0.266295 0.800053,0.170137 1.18316,0.173323 0.296364,0.0025 0.471098,-0.0066 0.412549,0.05777 -0.244565,0.268922 -3.201775,0.559153 -2.385779,1.155489 0.197758,0.144523 0.430434,0.200104 0.657743,0.281169 0.390212,0.139159 0.7643,0.298272 1.175376,0.373608 0.640898,0.117454 1.357292,0.03627 2.008258,0.05392 0.0804,0.0022 1.095572,0.15428 1.101428,0.08474 0.01185,-0.140767 -0.468768,-0.340946 -0.556552,-0.381312 -0.5724,-0.263207 -1.273032,-0.403468 -1.903175,-0.442937 -0.217626,-0.01363 -1.444615,-0.07002 -1.517869,-0.142511 -0.0486,-0.0481 0.114519,-0.07747 0.179031,-0.100142 0.462485,-0.14963 0.271334,-0.08294 0.576012,-0.192582 0.130059,-0.0468 1.625721,-0.653816 1.587925,-0.751068 -0.05092,-0.131014 -0.425495,-0.195381 -0.540985,-0.231097 -0.446728,-0.138156 -0.930076,-0.305274 -1.389434,-0.389015 -0.469415,-0.08557 -1.002865,-0.08894 -1.416678,-0.369757 -0.09574,-0.06497 -0.09297,-0.217075 -0.163463,-0.304278 -0.150629,-0.186335 -0.398673,0.03679 -0.06616,-0.21184 0.106656,-0.07975 0.211559,-0.162174 0.311357,-0.250356 0.295953,-0.261504 0.541579,-0.562162 0.828991,-0.820397 0.0639,-0.05741 0.129217,-0.113341 0.190706,-0.173324 0.135309,-0.131993 0.07492,-0.190492 0.151787,-0.346646 0.325269,-0.660737 -1.139525,0.391051 -1.132564,0.408273 0.02906,0.0719 0.124977,-0.09186 0.186815,-0.138659 0.187492,-0.14189 0.400907,-0.239321 0.595472,-0.369757 0.106394,-0.07133 0.611039,-0.380043 0.611039,-0.512267 0,-0.147312 -0.255395,-0.300237 -0.15957,-0.412124 0.159184,-0.185867 0.47365,-0.127889 0.700555,-0.219543 0.18285,-0.07386 0.150465,-0.286452 0.416441,-0.296575"
         id="path3229" />
      <path
         style="fill:#ffde00;fill-opacity:1"
         d="m 32.988896,38.242065 c -1.520464,0.686874 -3.048474,1.357284 -4.561392,2.060622 -0.417912,0.194283 -0.903398,0.306373 -1.229863,0.631668 -0.156992,0.156428 0.442853,-0.03011 0.661635,-0.06548 0.472338,-0.07635 0.975866,-0.278793 1.408894,-0.469899 0.479427,-0.211582 0.919236,-0.525181 1.385543,-0.766474 0.523876,-0.271083 1.471297,-0.533649 1.887606,-0.89743 0.167137,-0.146049 0.298385,-0.328673 0.447577,-0.493009 z"
         id="path3231" />
      <path
         style="fill:#ffde00;fill-opacity:1"
         d="m 25.380451,11.527062 c -0.113606,-0.01363 -0.561966,0.0032 -0.986907,0.05561 -0.161918,0.01998 -1.148986,0.169716 -1.099638,0.325219 0.0082,0.0259 1.792496,-0.0087 1.92272,-0.0726 0.138127,-0.0678 0.285388,-0.17477 0.439168,-0.169522 0.23104,0.0079 0.361123,0.120548 0.576637,0.204187 0.34046,0.132129 0.770326,0.09546 1.124781,0.16562 0.14475,0.02865 0.124908,0.266855 0.225734,0.292724 0.238333,0.06115 0.187887,-0.16702 0.01946,-0.254208 -0.244818,-0.126731 -0.458957,-0.254104 -0.726253,-0.31576 -0.294997,-0.05041 -0.64264,-0.09447 -0.933763,-0.163844 z"
         id="path3233" />
    </g>
  </g>
  <metadata
     id="metadata1569">
    <rdf:RDF>
      <cc:Work
         rdf:about="">
        <cc:license
           rdf:resource="http://creativecommons.org/licenses/by-nc-sa/4.0/" />
      </cc:Work>
      <cc:License
         rdf:about="http://creativecommons.org/licenses/by-nc-sa/4.0/">
        <cc:permits
           rdf:resource="http://creativecommons.org/ns#Reproduction" />
        <cc:permits
           rdf:resource="http://creativecommons.org/ns#Distribution" />
        <cc:requires
           rdf:resource="http://creativecommons.org/ns#Notice" />
        <cc:requires
           rdf:resource="http://creativecommons.org/ns#Attribution" />
        <cc:prohibits
           rdf:resource="http://creativecommons.org/ns#CommercialUse" />
        <cc:permits
           rdf:resource="http://creativecommons.org/ns#DerivativeWorks" />
        <cc:requires
           rdf:resource="http://creativecommons.org/ns#ShareAlike" />
      </cc:License>
    </rdf:RDF>
  </metadata>
</svg>
